<mxfile host="Electron" agent="Mozilla/5.0 (Windows NT 10.0; Win64; x64) AppleWebKit/537.36 (KHTML, like Gecko) draw.io/24.7.17 Chrome/128.0.6613.36 Electron/32.0.1 Safari/537.36" version="24.7.17">
  <diagram name="Page-1" id="TM1XB0LShbC5mi-17Cls">
    <mxGraphModel dx="1254" dy="783" grid="1" gridSize="10" guides="1" tooltips="1" connect="1" arrows="1" fold="1" page="1" pageScale="1" pageWidth="827" pageHeight="1169" background="#0D0D0D" math="0" shadow="0">
      <root>
        <mxCell id="0" />
        <mxCell id="1" parent="0" />
        <mxCell id="PRhAMGCwhDV5jho3n448-17" style="edgeStyle=orthogonalEdgeStyle;rounded=0;orthogonalLoop=1;jettySize=auto;html=1;exitX=0;exitY=0;exitDx=100;exitDy=40;exitPerimeter=0;entryX=0;entryY=0.5;entryDx=0;entryDy=0;curved=1;" parent="1" source="PRhAMGCwhDV5jho3n448-5" target="PRhAMGCwhDV5jho3n448-8" edge="1">
          <mxGeometry relative="1" as="geometry" />
        </mxCell>
        <mxCell id="PRhAMGCwhDV5jho3n448-5" value="Instrument 1" style="shape=cube;whiteSpace=wrap;html=1;boundedLbl=1;backgroundOutline=1;darkOpacity=0.05;darkOpacity2=0.1;" parent="1" vertex="1">
          <mxGeometry x="51" y="411" width="100" height="60" as="geometry" />
        </mxCell>
        <mxCell id="PRhAMGCwhDV5jho3n448-18" style="edgeStyle=orthogonalEdgeStyle;rounded=0;orthogonalLoop=1;jettySize=auto;html=1;exitX=0;exitY=0;exitDx=100;exitDy=40;exitPerimeter=0;entryX=0;entryY=0.5;entryDx=0;entryDy=0;curved=1;" parent="1" source="PRhAMGCwhDV5jho3n448-7" target="PRhAMGCwhDV5jho3n448-8" edge="1">
          <mxGeometry relative="1" as="geometry" />
        </mxCell>
        <mxCell id="PRhAMGCwhDV5jho3n448-7" value="Instrument 2" style="shape=cube;whiteSpace=wrap;html=1;boundedLbl=1;backgroundOutline=1;darkOpacity=0.05;darkOpacity2=0.1;" parent="1" vertex="1">
          <mxGeometry x="48" y="520" width="100" height="60" as="geometry" />
        </mxCell>
        <mxCell id="PRhAMGCwhDV5jho3n448-13" value="TABLE DE MIXAGE Hybrid" style="swimlane;whiteSpace=wrap;html=1;fillColor=#008a00;strokeColor=#005700;fontColor=#ffffff;" parent="1" vertex="1">
          <mxGeometry x="241" y="170" width="689" height="520" as="geometry">
            <mxRectangle x="230" y="175" width="160" height="35" as="alternateBounds" />
          </mxGeometry>
        </mxCell>
        <mxCell id="chk957T4r7BLnQ_U5KQF-3" value="" style="rounded=0;whiteSpace=wrap;html=1;fillColor=#6a00ff;strokeColor=#3700CC;fontColor=#ffffff;opacity=40;" parent="PRhAMGCwhDV5jho3n448-13" vertex="1">
          <mxGeometry x="80" y="70" width="520" height="170" as="geometry" />
        </mxCell>
        <mxCell id="chk957T4r7BLnQ_U5KQF-2" value="" style="rounded=0;whiteSpace=wrap;html=1;fillColor=#6a00ff;strokeColor=#3700CC;fontColor=#ffffff;opacity=40;" parent="PRhAMGCwhDV5jho3n448-13" vertex="1">
          <mxGeometry x="190" y="272.5" width="410" height="197.5" as="geometry" />
        </mxCell>
        <mxCell id="PRhAMGCwhDV5jho3n448-32" style="edgeStyle=orthogonalEdgeStyle;rounded=0;orthogonalLoop=1;jettySize=auto;html=1;exitX=0.5;exitY=0;exitDx=0;exitDy=0;entryX=0;entryY=0.5;entryDx=0;entryDy=0;" parent="PRhAMGCwhDV5jho3n448-13" source="PRhAMGCwhDV5jho3n448-8" target="PRhAMGCwhDV5jho3n448-14" edge="1">
          <mxGeometry relative="1" as="geometry" />
        </mxCell>
        <mxCell id="PRhAMGCwhDV5jho3n448-36" style="edgeStyle=orthogonalEdgeStyle;rounded=0;orthogonalLoop=1;jettySize=auto;html=1;exitX=1;exitY=0.5;exitDx=0;exitDy=0;entryX=0;entryY=0.5;entryDx=0;entryDy=0;" parent="PRhAMGCwhDV5jho3n448-13" source="PRhAMGCwhDV5jho3n448-8" target="PRhAMGCwhDV5jho3n448-39" edge="1">
          <mxGeometry relative="1" as="geometry">
            <mxPoint x="141" y="350" as="targetPoint" />
            <Array as="points">
              <mxPoint x="159" y="258" />
              <mxPoint x="159" y="350" />
            </Array>
          </mxGeometry>
        </mxCell>
        <mxCell id="PRhAMGCwhDV5jho3n448-40" value="E ANA" style="edgeLabel;html=1;align=center;verticalAlign=middle;resizable=0;points=[];" parent="PRhAMGCwhDV5jho3n448-36" vertex="1" connectable="0">
          <mxGeometry x="0.0098" y="1" relative="1" as="geometry">
            <mxPoint as="offset" />
          </mxGeometry>
        </mxCell>
        <mxCell id="PRhAMGCwhDV5jho3n448-42" style="edgeStyle=orthogonalEdgeStyle;rounded=0;orthogonalLoop=1;jettySize=auto;html=1;exitX=1;exitY=0.25;exitDx=0;exitDy=0;entryX=0;entryY=0.5;entryDx=0;entryDy=0;" parent="PRhAMGCwhDV5jho3n448-13" source="PRhAMGCwhDV5jho3n448-8" target="PRhAMGCwhDV5jho3n448-41" edge="1">
          <mxGeometry relative="1" as="geometry" />
        </mxCell>
        <mxCell id="PRhAMGCwhDV5jho3n448-43" value="E NUM" style="edgeLabel;html=1;align=center;verticalAlign=middle;resizable=0;points=[];" parent="PRhAMGCwhDV5jho3n448-42" vertex="1" connectable="0">
          <mxGeometry x="0.0448" y="-1" relative="1" as="geometry">
            <mxPoint as="offset" />
          </mxGeometry>
        </mxCell>
        <mxCell id="PRhAMGCwhDV5jho3n448-8" value="&lt;span style=&quot;font-size: 10px;&quot;&gt;ENTREES&amp;nbsp; Numeriques micro, line:&amp;nbsp;&lt;/span&gt;&lt;div style=&quot;text-align: left; font-size: 9px;&quot;&gt;&lt;span style=&quot;font-size: 10px;&quot;&gt;&lt;br&gt;&lt;/span&gt;&lt;/div&gt;&lt;div style=&quot;text-align: left; font-size: 9px;&quot;&gt;&lt;br&gt;&lt;/div&gt;" style="rounded=0;whiteSpace=wrap;html=1;" parent="PRhAMGCwhDV5jho3n448-13" vertex="1">
          <mxGeometry y="210" width="70" height="95" as="geometry" />
        </mxCell>
        <mxCell id="PRhAMGCwhDV5jho3n448-29" style="edgeStyle=orthogonalEdgeStyle;rounded=0;orthogonalLoop=1;jettySize=auto;html=1;exitX=1;exitY=0.5;exitDx=0;exitDy=0;entryX=0;entryY=0.5;entryDx=0;entryDy=0;" parent="PRhAMGCwhDV5jho3n448-13" source="PRhAMGCwhDV5jho3n448-10" target="PRhAMGCwhDV5jho3n448-11" edge="1">
          <mxGeometry relative="1" as="geometry">
            <mxPoint x="420" y="250" as="targetPoint" />
            <Array as="points">
              <mxPoint x="589" y="197" />
              <mxPoint x="589" y="258" />
            </Array>
          </mxGeometry>
        </mxCell>
        <mxCell id="PRhAMGCwhDV5jho3n448-10" value="&lt;div&gt;Mixeur&amp;nbsp;&lt;span style=&quot;font-size: 10px;&quot;&gt;&lt;br&gt;&lt;/span&gt;&lt;/div&gt;" style="rounded=0;whiteSpace=wrap;html=1;" parent="PRhAMGCwhDV5jho3n448-13" vertex="1">
          <mxGeometry x="505" y="186" width="80" height="22.5" as="geometry" />
        </mxCell>
        <mxCell id="PRhAMGCwhDV5jho3n448-11" value="&lt;span style=&quot;font-size: 10px;&quot;&gt;SORTIES&lt;/span&gt;" style="rounded=0;whiteSpace=wrap;html=1;" parent="PRhAMGCwhDV5jho3n448-13" vertex="1">
          <mxGeometry x="610" y="242.5" width="51" height="30" as="geometry" />
        </mxCell>
        <mxCell id="PRhAMGCwhDV5jho3n448-14" value="&lt;span style=&quot;font-size: 10px;&quot;&gt;Synchronisation&lt;/span&gt;" style="rounded=0;whiteSpace=wrap;html=1;" parent="PRhAMGCwhDV5jho3n448-13" vertex="1">
          <mxGeometry x="100" y="32" width="80" height="30" as="geometry" />
        </mxCell>
        <mxCell id="PRhAMGCwhDV5jho3n448-31" style="edgeStyle=orthogonalEdgeStyle;rounded=0;orthogonalLoop=1;jettySize=auto;html=1;exitX=0.5;exitY=1;exitDx=0;exitDy=0;entryX=0.5;entryY=0;entryDx=0;entryDy=0;" parent="PRhAMGCwhDV5jho3n448-13" source="PRhAMGCwhDV5jho3n448-19" target="PRhAMGCwhDV5jho3n448-10" edge="1">
          <mxGeometry relative="1" as="geometry">
            <Array as="points">
              <mxPoint x="483" y="141" />
              <mxPoint x="533" y="141" />
            </Array>
          </mxGeometry>
        </mxCell>
        <mxCell id="PRhAMGCwhDV5jho3n448-19" value="&lt;span style=&quot;font-size: 10px;&quot;&gt;INERFACE UTILISATEUR&lt;/span&gt;" style="rounded=0;whiteSpace=wrap;html=1;" parent="PRhAMGCwhDV5jho3n448-13" vertex="1">
          <mxGeometry x="444" y="70" width="80" height="50" as="geometry" />
        </mxCell>
        <mxCell id="PRhAMGCwhDV5jho3n448-28" style="rounded=0;orthogonalLoop=1;jettySize=auto;html=1;exitX=1;exitY=0.5;exitDx=0;exitDy=0;entryX=0;entryY=0.5;entryDx=0;entryDy=0;" parent="PRhAMGCwhDV5jho3n448-13" source="PRhAMGCwhDV5jho3n448-23" target="PRhAMGCwhDV5jho3n448-10" edge="1">
          <mxGeometry relative="1" as="geometry" />
        </mxCell>
        <mxCell id="PRhAMGCwhDV5jho3n448-23" value="&lt;span style=&quot;font-size: 10px;&quot;&gt;DSP - Traitement du Signal&amp;nbsp; signal Numerique :&lt;/span&gt;&lt;div&gt;&lt;span style=&quot;font-size: 10px;&quot;&gt;-&lt;/span&gt;Contrôle du Gain&lt;span style=&quot;font-size: 10px;&quot;&gt;,&lt;/span&gt;&lt;/div&gt;&lt;div&gt;&lt;span style=&quot;font-size: 10px;&quot;&gt;-&amp;nbsp;&amp;nbsp;&lt;/span&gt; &lt;strong&gt;Égaliseur (EQ)&lt;/strong&gt;&lt;span style=&quot;font-size: 10px;&quot;&gt;,&lt;/span&gt;&lt;/div&gt;&lt;div&gt;&lt;span style=&quot;font-size: 10px;&quot;&gt;-&amp;nbsp;&lt;/span&gt;&lt;span style=&quot;background-color: initial;&quot;&gt;Effets&lt;/span&gt;&lt;/div&gt;" style="rounded=0;whiteSpace=wrap;html=1;" parent="PRhAMGCwhDV5jho3n448-13" vertex="1">
          <mxGeometry x="353" y="162.5" width="140" height="70" as="geometry" />
        </mxCell>
        <mxCell id="PRhAMGCwhDV5jho3n448-30" style="edgeStyle=orthogonalEdgeStyle;rounded=0;orthogonalLoop=1;jettySize=auto;html=1;exitX=0.5;exitY=1;exitDx=0;exitDy=0;entryX=0.5;entryY=0;entryDx=0;entryDy=0;" parent="PRhAMGCwhDV5jho3n448-13" source="PRhAMGCwhDV5jho3n448-19" target="PRhAMGCwhDV5jho3n448-23" edge="1">
          <mxGeometry relative="1" as="geometry" />
        </mxCell>
        <mxCell id="FsHdTu9yCKSX3JoGPkMy-2" style="edgeStyle=orthogonalEdgeStyle;rounded=0;orthogonalLoop=1;jettySize=auto;html=1;exitX=1;exitY=0.5;exitDx=0;exitDy=0;entryX=0;entryY=0.5;entryDx=0;entryDy=0;fontSize=12;startSize=8;endSize=8;" parent="PRhAMGCwhDV5jho3n448-13" source="PRhAMGCwhDV5jho3n448-39" target="FsHdTu9yCKSX3JoGPkMy-1" edge="1">
          <mxGeometry relative="1" as="geometry">
            <Array as="points">
              <mxPoint x="292" y="350" />
              <mxPoint x="292" y="370" />
              <mxPoint x="222" y="370" />
              <mxPoint x="222" y="391" />
            </Array>
          </mxGeometry>
        </mxCell>
        <mxCell id="PRhAMGCwhDV5jho3n448-39" value="Filtres" style="rounded=0;whiteSpace=wrap;html=1;" parent="PRhAMGCwhDV5jho3n448-13" vertex="1">
          <mxGeometry x="263" y="335" width="40" height="30" as="geometry" />
        </mxCell>
        <mxCell id="PRhAMGCwhDV5jho3n448-41" value="&lt;font style=&quot;&quot;&gt;&lt;strong style=&quot;&quot;&gt;&lt;font style=&quot;font-size: 11px;&quot;&gt;Convertisseur numérique-numérique&lt;/font&gt;&lt;span style=&quot;font-size: 6px;&quot;&gt; (Digital Input Processor)&lt;/span&gt;&lt;/strong&gt;&lt;span style=&quot;font-size: 6px;&quot;&gt; pour ajuster les formats d&#39;entrée si nécessaire.&lt;/span&gt;&lt;/font&gt;" style="rounded=0;whiteSpace=wrap;html=1;" parent="PRhAMGCwhDV5jho3n448-13" vertex="1">
          <mxGeometry x="119" y="80" width="120" height="80" as="geometry" />
        </mxCell>
        <mxCell id="FsHdTu9yCKSX3JoGPkMy-9" style="edgeStyle=orthogonalEdgeStyle;rounded=0;orthogonalLoop=1;jettySize=auto;html=1;exitX=1;exitY=0.5;exitDx=0;exitDy=0;entryX=0;entryY=0.5;entryDx=0;entryDy=0;fontSize=12;startSize=8;endSize=8;" parent="PRhAMGCwhDV5jho3n448-13" source="FsHdTu9yCKSX3JoGPkMy-1" target="FsHdTu9yCKSX3JoGPkMy-3" edge="1">
          <mxGeometry relative="1" as="geometry">
            <Array as="points">
              <mxPoint x="279" y="395" />
              <mxPoint x="292" y="395" />
              <mxPoint x="292" y="410" />
              <mxPoint x="222" y="410" />
              <mxPoint x="222" y="430" />
            </Array>
          </mxGeometry>
        </mxCell>
        <mxCell id="FsHdTu9yCKSX3JoGPkMy-1" value="Gain" style="rounded=0;whiteSpace=wrap;html=1;" parent="PRhAMGCwhDV5jho3n448-13" vertex="1">
          <mxGeometry x="267.5" y="376" width="31" height="30" as="geometry" />
        </mxCell>
        <mxCell id="FsHdTu9yCKSX3JoGPkMy-6" style="edgeStyle=none;curved=1;rounded=0;orthogonalLoop=1;jettySize=auto;html=1;exitX=1;exitY=0.5;exitDx=0;exitDy=0;fontSize=12;startSize=8;endSize=8;" parent="PRhAMGCwhDV5jho3n448-13" source="FsHdTu9yCKSX3JoGPkMy-3" target="FsHdTu9yCKSX3JoGPkMy-5" edge="1">
          <mxGeometry relative="1" as="geometry" />
        </mxCell>
        <mxCell id="FsHdTu9yCKSX3JoGPkMy-3" value="EQ" style="rounded=0;whiteSpace=wrap;html=1;" parent="PRhAMGCwhDV5jho3n448-13" vertex="1">
          <mxGeometry x="268" y="415" width="31" height="30" as="geometry" />
        </mxCell>
        <mxCell id="FsHdTu9yCKSX3JoGPkMy-15" style="edgeStyle=orthogonalEdgeStyle;rounded=0;orthogonalLoop=1;jettySize=auto;html=1;exitX=1;exitY=0.5;exitDx=0;exitDy=0;entryX=0;entryY=0.5;entryDx=0;entryDy=0;fontSize=12;startSize=8;endSize=8;" parent="PRhAMGCwhDV5jho3n448-13" source="FsHdTu9yCKSX3JoGPkMy-5" target="FsHdTu9yCKSX3JoGPkMy-14" edge="1">
          <mxGeometry relative="1" as="geometry">
            <Array as="points">
              <mxPoint x="399" y="431" />
              <mxPoint x="399" y="410" />
              <mxPoint x="319" y="410" />
              <mxPoint x="319" y="388" />
            </Array>
          </mxGeometry>
        </mxCell>
        <mxCell id="FsHdTu9yCKSX3JoGPkMy-5" value="Effets" style="rounded=0;whiteSpace=wrap;html=1;" parent="PRhAMGCwhDV5jho3n448-13" vertex="1">
          <mxGeometry x="338" y="415" width="39" height="30" as="geometry" />
        </mxCell>
        <mxCell id="FsHdTu9yCKSX3JoGPkMy-13" style="edgeStyle=none;curved=1;rounded=0;orthogonalLoop=1;jettySize=auto;html=1;exitX=1;exitY=0.5;exitDx=0;exitDy=0;entryX=0;entryY=0.5;entryDx=0;entryDy=0;fontSize=12;startSize=8;endSize=8;" parent="PRhAMGCwhDV5jho3n448-13" source="FsHdTu9yCKSX3JoGPkMy-7" target="PRhAMGCwhDV5jho3n448-23" edge="1">
          <mxGeometry relative="1" as="geometry" />
        </mxCell>
        <mxCell id="FsHdTu9yCKSX3JoGPkMy-7" value="STOCKAGE" style="rounded=0;whiteSpace=wrap;html=1;" parent="PRhAMGCwhDV5jho3n448-13" vertex="1">
          <mxGeometry x="268" y="177.5" width="70" height="40" as="geometry" />
        </mxCell>
        <mxCell id="FsHdTu9yCKSX3JoGPkMy-12" style="edgeStyle=orthogonalEdgeStyle;rounded=0;orthogonalLoop=1;jettySize=auto;html=1;exitX=1;exitY=0.5;exitDx=0;exitDy=0;entryX=0;entryY=0.5;entryDx=0;entryDy=0;fontSize=12;startSize=8;endSize=8;" parent="PRhAMGCwhDV5jho3n448-13" source="PRhAMGCwhDV5jho3n448-41" target="FsHdTu9yCKSX3JoGPkMy-7" edge="1">
          <mxGeometry relative="1" as="geometry">
            <Array as="points">
              <mxPoint x="249" y="120" />
              <mxPoint x="249" y="197" />
            </Array>
          </mxGeometry>
        </mxCell>
        <mxCell id="FsHdTu9yCKSX3JoGPkMy-18" style="edgeStyle=orthogonalEdgeStyle;rounded=0;orthogonalLoop=1;jettySize=auto;html=1;exitX=1;exitY=0.5;exitDx=0;exitDy=0;entryX=0;entryY=0.5;entryDx=0;entryDy=0;fontSize=12;startSize=8;endSize=8;" parent="PRhAMGCwhDV5jho3n448-13" source="FsHdTu9yCKSX3JoGPkMy-14" target="FsHdTu9yCKSX3JoGPkMy-17" edge="1">
          <mxGeometry relative="1" as="geometry">
            <Array as="points">
              <mxPoint x="377" y="390" />
              <mxPoint x="399" y="390" />
              <mxPoint x="399" y="370" />
              <mxPoint x="319" y="370" />
              <mxPoint x="319" y="353" />
            </Array>
          </mxGeometry>
        </mxCell>
        <mxCell id="FsHdTu9yCKSX3JoGPkMy-14" value="CAN" style="rounded=0;whiteSpace=wrap;html=1;" parent="PRhAMGCwhDV5jho3n448-13" vertex="1">
          <mxGeometry x="338" y="376" width="39" height="24" as="geometry" />
        </mxCell>
        <mxCell id="FsHdTu9yCKSX3JoGPkMy-17" value="STOCKAGE" style="rounded=0;whiteSpace=wrap;html=1;" parent="PRhAMGCwhDV5jho3n448-13" vertex="1">
          <mxGeometry x="331" y="340" width="70" height="25" as="geometry" />
        </mxCell>
        <mxCell id="FsHdTu9yCKSX3JoGPkMy-22" style="edgeStyle=orthogonalEdgeStyle;rounded=0;orthogonalLoop=1;jettySize=auto;html=1;exitX=1;exitY=0.5;exitDx=0;exitDy=0;entryX=0;entryY=0.5;entryDx=0;entryDy=0;fontSize=12;startSize=8;endSize=8;" parent="PRhAMGCwhDV5jho3n448-13" source="FsHdTu9yCKSX3JoGPkMy-19" target="PRhAMGCwhDV5jho3n448-11" edge="1">
          <mxGeometry relative="1" as="geometry" />
        </mxCell>
        <mxCell id="FsHdTu9yCKSX3JoGPkMy-19" value="&lt;div&gt;Mixeur&lt;span style=&quot;font-size: 10px;&quot;&gt;&lt;br&gt;&lt;/span&gt;&lt;/div&gt;" style="rounded=0;whiteSpace=wrap;html=1;" parent="PRhAMGCwhDV5jho3n448-13" vertex="1">
          <mxGeometry x="488" y="371" width="80" height="34" as="geometry" />
        </mxCell>
        <mxCell id="chk957T4r7BLnQ_U5KQF-4" value="Numerique" style="text;html=1;align=center;verticalAlign=middle;whiteSpace=wrap;rounded=0;fontSize=16;" parent="PRhAMGCwhDV5jho3n448-13" vertex="1">
          <mxGeometry x="300.5" y="80" width="60" height="30" as="geometry" />
        </mxCell>
        <mxCell id="chk957T4r7BLnQ_U5KQF-5" value="Analogique" style="text;html=1;align=center;verticalAlign=middle;whiteSpace=wrap;rounded=0;fontSize=16;" parent="PRhAMGCwhDV5jho3n448-13" vertex="1">
          <mxGeometry x="310" y="291" width="60" height="30" as="geometry" />
        </mxCell>
        <mxCell id="chk957T4r7BLnQ_U5KQF-10" style="edgeStyle=none;curved=1;rounded=0;orthogonalLoop=1;jettySize=auto;html=1;exitX=0.5;exitY=1;exitDx=0;exitDy=0;entryX=0.5;entryY=0;entryDx=0;entryDy=0;fontSize=12;startSize=8;endSize=8;" parent="PRhAMGCwhDV5jho3n448-13" source="chk957T4r7BLnQ_U5KQF-8" target="chk957T4r7BLnQ_U5KQF-9" edge="1">
          <mxGeometry relative="1" as="geometry" />
        </mxCell>
        <mxCell id="chk957T4r7BLnQ_U5KQF-8" value="&lt;font style=&quot;&quot;&gt;&lt;strong style=&quot;&quot;&gt;&lt;font style=&quot;font-size: 11px;&quot;&gt;Convertisseur numérique-numérique&lt;/font&gt;&lt;span style=&quot;font-size: 6px;&quot;&gt; (Digital Input Processor)&lt;/span&gt;&lt;/strong&gt;&lt;span style=&quot;font-size: 6px;&quot;&gt; pour ajuster les formats d&#39;entrée si nécessaire.&lt;/span&gt;&lt;/font&gt;" style="rounded=0;whiteSpace=wrap;html=1;" parent="PRhAMGCwhDV5jho3n448-13" vertex="1">
          <mxGeometry x="39" y="337" width="101" height="80" as="geometry" />
        </mxCell>
        <mxCell id="chk957T4r7BLnQ_U5KQF-6" style="edgeStyle=orthogonalEdgeStyle;rounded=0;orthogonalLoop=1;jettySize=auto;html=1;exitX=0.997;exitY=0.786;exitDx=0;exitDy=0;exitPerimeter=0;entryX=0.5;entryY=0;entryDx=0;entryDy=0;" parent="PRhAMGCwhDV5jho3n448-13" source="PRhAMGCwhDV5jho3n448-8" target="chk957T4r7BLnQ_U5KQF-8" edge="1">
          <mxGeometry relative="1" as="geometry">
            <mxPoint x="80.81999999999985" y="285.00999999999993" as="sourcePoint" />
            <mxPoint x="98.15000000000012" y="321.19" as="targetPoint" />
            <Array as="points">
              <mxPoint x="89" y="285" />
              <mxPoint x="89" y="337" />
            </Array>
          </mxGeometry>
        </mxCell>
        <mxCell id="chk957T4r7BLnQ_U5KQF-7" value="E NUM" style="edgeLabel;html=1;align=center;verticalAlign=middle;resizable=0;points=[];" parent="chk957T4r7BLnQ_U5KQF-6" vertex="1" connectable="0">
          <mxGeometry x="0.0448" y="-1" relative="1" as="geometry">
            <mxPoint y="-8" as="offset" />
          </mxGeometry>
        </mxCell>
        <mxCell id="chk957T4r7BLnQ_U5KQF-11" style="edgeStyle=orthogonalEdgeStyle;rounded=0;orthogonalLoop=1;jettySize=auto;html=1;exitX=0.5;exitY=1;exitDx=0;exitDy=0;entryX=0;entryY=0.5;entryDx=0;entryDy=0;fontSize=12;startSize=8;endSize=8;" parent="PRhAMGCwhDV5jho3n448-13" source="chk957T4r7BLnQ_U5KQF-9" target="PRhAMGCwhDV5jho3n448-39" edge="1">
          <mxGeometry relative="1" as="geometry">
            <Array as="points">
              <mxPoint x="90" y="485" />
              <mxPoint x="159" y="485" />
              <mxPoint x="159" y="350" />
            </Array>
          </mxGeometry>
        </mxCell>
        <mxCell id="chk957T4r7BLnQ_U5KQF-12" value="&lt;span style=&quot;color: rgba(0, 0, 0, 0); font-family: monospace; font-size: 0px; text-align: start; background-color: rgb(251, 251, 251);&quot;&gt;%3CmxGraphModel%3E%3Croot%3E%3CmxCell%20id%3D%220%22%2F%3E%3CmxCell%20id%3D%221%22%20parent%3D%220%22%2F%3E%3CmxCell%20id%3D%222%22%20value%3D%22E%20ANA%22%20style%3D%22edgeLabel%3Bhtml%3D1%3Balign%3Dcenter%3BverticalAlign%3Dmiddle%3Bresizable%3D0%3Bpoints%3D%5B%5D%3B%22%20vertex%3D%221%22%20connectable%3D%220%22%20parent%3D%221%22%3E%3CmxGeometry%20x%3D%22401%22%20y%3D%22561.8095206247292%22%20as%3D%22geometry%22%2F%3E%3C%2FmxCell%3E%3C%2Froot%3E%3C%2FmxGraphModel%3E&lt;/span&gt;" style="edgeLabel;html=1;align=center;verticalAlign=middle;resizable=0;points=[];fontSize=12;" parent="chk957T4r7BLnQ_U5KQF-11" vertex="1" connectable="0">
          <mxGeometry x="0.1412" y="1" relative="1" as="geometry">
            <mxPoint as="offset" />
          </mxGeometry>
        </mxCell>
        <mxCell id="chk957T4r7BLnQ_U5KQF-9" value="&lt;div&gt;CNA&lt;span style=&quot;font-size: 10px;&quot;&gt;&lt;br&gt;&lt;/span&gt;&lt;/div&gt;" style="rounded=0;whiteSpace=wrap;html=1;" parent="PRhAMGCwhDV5jho3n448-13" vertex="1">
          <mxGeometry x="68.5" y="431" width="42" height="34" as="geometry" />
        </mxCell>
        <mxCell id="FsHdTu9yCKSX3JoGPkMy-23" value="&lt;div&gt;CNA&lt;span style=&quot;font-size: 10px;&quot;&gt;&lt;br&gt;&lt;/span&gt;&lt;/div&gt;" style="rounded=0;whiteSpace=wrap;html=1;" parent="PRhAMGCwhDV5jho3n448-13" vertex="1">
          <mxGeometry x="429" y="417" width="42" height="34" as="geometry" />
        </mxCell>
        <mxCell id="FsHdTu9yCKSX3JoGPkMy-25" style="edgeStyle=none;curved=1;rounded=0;orthogonalLoop=1;jettySize=auto;html=1;exitX=1;exitY=0.5;exitDx=0;exitDy=0;fontSize=12;startSize=8;endSize=8;" parent="PRhAMGCwhDV5jho3n448-13" source="FsHdTu9yCKSX3JoGPkMy-23" target="FsHdTu9yCKSX3JoGPkMy-19" edge="1">
          <mxGeometry relative="1" as="geometry" />
        </mxCell>
        <mxCell id="PRhAMGCwhDV5jho3n448-24" value="&lt;h1 style=&quot;margin-top: 0px;&quot;&gt;Mixeur Principal&lt;/h1&gt;&lt;p&gt;Une fois les entrées synchronisées, ajustées et modifiées par les effets, elles passent dans le &lt;strong&gt;mixeur numérique&lt;/strong&gt;, où elles sont combinées pour produire une sortie mixée.&lt;br&gt;&lt;/p&gt;" style="text;html=1;whiteSpace=wrap;overflow=hidden;rounded=0;" parent="1" vertex="1">
          <mxGeometry x="590" y="805" width="180" height="190" as="geometry" />
        </mxCell>
        <mxCell id="PRhAMGCwhDV5jho3n448-25" value="&lt;h1 style=&quot;margin-top: 0px;&quot;&gt;&lt;span style=&quot;font-size: 10px; font-weight: 400; text-align: center;&quot;&gt;Synchronisation&lt;/span&gt;&lt;br&gt;&lt;/h1&gt;&lt;li&gt;Ce bloc gère la synchronisation des sources audio. Il pourrait utiliser un signal maître pour synchroniser toutes les entrées avec un timing précis. Cela permet de garantir que toutes les sources audio sont synchronisées temporellement.&lt;/li&gt;&lt;li&gt;&lt;strong&gt;Générateur d&#39;horloge (Clock Generator)&lt;/strong&gt; : Il fournit l&#39;horloge de référence pour assurer la synchronisation de toutes les entrées.&lt;/li&gt;&lt;li&gt;&lt;strong&gt;Synchronisation d&#39;entrée (Input Sync)&lt;/strong&gt; : Unité qui ajuste les délais et applique les corrections nécessaires pour aligner les signaux.&lt;/li&gt;" style="text;html=1;whiteSpace=wrap;overflow=hidden;rounded=0;" parent="1" vertex="1">
          <mxGeometry x="400" y="785" width="180" height="370" as="geometry" />
        </mxCell>
        <mxCell id="PRhAMGCwhDV5jho3n448-26" value="&lt;h1 style=&quot;margin-top: 0px;&quot;&gt;DSP&lt;/h1&gt;&lt;h3&gt; &lt;strong&gt;Contrôle du Gain&lt;/strong&gt;&lt;/h3&gt;&lt;ul&gt;&lt;li&gt;Chaque signal passe par un &lt;strong&gt;contrôle de gain&lt;/strong&gt; numérique, permettant à l&#39;utilisateur d&#39;ajuster le volume de chaque piste indépendamment.&lt;/li&gt;&lt;/ul&gt;&lt;h3&gt;4. &lt;strong&gt;Égaliseur (EQ)&lt;/strong&gt;&lt;/h3&gt;&lt;ul&gt;&lt;li&gt;Un égaliseur permet de moduler les fréquences de chaque entrée de manière indépendante.&lt;/li&gt;&lt;/ul&gt;&lt;h3&gt;5. &lt;strong&gt;Effets&lt;/strong&gt;&lt;/h3&gt;&lt;ul&gt;&lt;li&gt;Des effets peuvent être appliqués aux signaux via un bloc d’effets numériques (par exemple, réverbération, écho, compression).&lt;/li&gt;&lt;/ul&gt;" style="text;html=1;whiteSpace=wrap;overflow=hidden;rounded=0;" parent="1" vertex="1">
          <mxGeometry x="210" y="805" width="180" height="410" as="geometry" />
        </mxCell>
        <mxCell id="FsHdTu9yCKSX3JoGPkMy-21" style="edgeStyle=orthogonalEdgeStyle;rounded=0;orthogonalLoop=1;jettySize=auto;html=1;exitX=1;exitY=0.5;exitDx=0;exitDy=0;fontSize=12;startSize=8;endSize=8;entryX=0;entryY=0.5;entryDx=0;entryDy=0;" parent="1" target="FsHdTu9yCKSX3JoGPkMy-23" edge="1">
          <mxGeometry relative="1" as="geometry">
            <mxPoint x="658" y="636" as="targetPoint" />
            <Array as="points">
              <mxPoint x="650" y="602" />
              <mxPoint x="650" y="604" />
            </Array>
            <mxPoint x="641" y="601.5000000000001" as="sourcePoint" />
          </mxGeometry>
        </mxCell>
        <mxCell id="Q7nFl7xqgfYZ3-9ITjST-1" style="edgeStyle=orthogonalEdgeStyle;rounded=0;orthogonalLoop=1;jettySize=auto;html=1;exitX=1;exitY=0.5;exitDx=0;exitDy=0;entryX=0;entryY=0;entryDx=0;entryDy=20;entryPerimeter=0;" edge="1" parent="1" source="PRhAMGCwhDV5jho3n448-14" target="PRhAMGCwhDV5jho3n448-5">
          <mxGeometry relative="1" as="geometry">
            <Array as="points">
              <mxPoint x="970" y="217" />
              <mxPoint x="970" y="710" />
              <mxPoint x="31" y="710" />
              <mxPoint x="31" y="431" />
            </Array>
          </mxGeometry>
        </mxCell>
        <mxCell id="Q7nFl7xqgfYZ3-9ITjST-2" style="edgeStyle=orthogonalEdgeStyle;rounded=0;orthogonalLoop=1;jettySize=auto;html=1;exitX=0;exitY=0;exitDx=0;exitDy=20;exitPerimeter=0;entryX=0;entryY=0;entryDx=0;entryDy=20;entryPerimeter=0;" edge="1" parent="1" source="PRhAMGCwhDV5jho3n448-5" target="PRhAMGCwhDV5jho3n448-7">
          <mxGeometry relative="1" as="geometry">
            <Array as="points">
              <mxPoint x="30" y="431" />
              <mxPoint x="30" y="540" />
            </Array>
          </mxGeometry>
        </mxCell>
      </root>
    </mxGraphModel>
  </diagram>
</mxfile>
